<?xml version="1.0" standalone="no"?>
<!DOCTYPE svg PUBLIC "-//W3C//DTD SVG 20010904//EN"
 "http://www.w3.org/TR/2001/REC-SVG-20010904/DTD/svg10.dtd">
<svg version="1.0" xmlns="http://www.w3.org/2000/svg"
 width="1000.000000pt" height="1000.000000pt" viewBox="0 0 1000.000000 1000.000000"
 preserveAspectRatio="xMidYMid meet">

<g transform="translate(0.000000,1000.000000) scale(0.100000,-0.100000)"
fill="#000000" stroke="none">
<path d="M4900 8494 c-665 -47 -1269 -292 -1758 -711 -115 -98 -312 -294 -414
-412 -397 -456 -640 -1000 -713 -1591 -27 -222 -30 -207 88 -385 56 -85 105
-155 109 -155 3 0 75 98 159 218 129 184 155 226 167 277 79 337 138 509 257
750 128 262 323 542 495 715 173 172 453 367 715 495 200 98 373 162 581 216
437 111 781 111 1218 0 407 -104 803 -302 1125 -561 132 -107 214 -189 321
-321 313 -389 532 -878 613 -1374 l23 -137 123 196 c68 108 125 196 126 196 2
0 56 -84 121 -187 64 -104 123 -197 130 -207 11 -16 12 -8 8 55 -37 531 -179
983 -441 1408 -248 402 -672 826 -1074 1074 -363 224 -767 367 -1199 423 -120
15 -645 27 -780 18z"/>
<path d="M8097 5658 c-18 -29 -70 -111 -114 -183 l-81 -130 -6 -115 c-14 -260
-78 -566 -171 -825 -129 -358 -385 -774 -625 -1015 -173 -172 -453 -367 -715
-495 -349 -171 -656 -257 -1085 -300 -85 -9 -198 -21 -250 -26 -121 -13 -2420
-22 -2828 -12 l-302 8 0 -222 0 -223 1793 0 c1524 0 1812 2 1927 15 352 39
660 118 958 246 123 53 301 148 330 178 9 10 58 46 107 82 345 246 706 628
918 970 280 454 423 937 444 1500 l6 177 -132 211 c-73 116 -134 211 -136 211
-3 0 -19 -24 -38 -52z"/>
<path d="M2353 5250 c-76 -109 -140 -199 -143 -199 -3 0 -54 72 -113 162
l-109 162 6 -220 c8 -327 42 -560 121 -827 94 -317 261 -652 455 -914 200
-269 512 -577 784 -773 l89 -64 661 6 c363 4 713 10 776 14 l115 6 -128 19
c-491 71 -1010 299 -1406 618 -191 154 -330 312 -494 560 -287 437 -468 1007
-471 1487 -1 90 -2 163 -3 163 -1 0 -64 -90 -140 -200z"/>
<path d="M1540 2345 l0 -225 75 0 75 0 0 225 0 225 -75 0 -75 0 0 -225z"/>
<path d="M1700 2345 l0 -225 100 0 100 0 0 225 0 225 -100 0 -100 0 0 -225z"/>
<path d="M6970 2551 c0 -28 -329 -198 -513 -266 -139 -51 -319 -101 -482 -135
l-140 -29 1318 0 1317 -1 0 220 0 220 -750 0 c-455 0 -750 -4 -750 -9z"/>
<path d="M8752 2551 c-52 -14 -109 -57 -138 -107 -59 -100 -26 -231 74 -295
40 -25 56 -29 117 -29 61 0 77 4 117 29 102 65 134 198 72 298 -50 81 -154
125 -242 104z"/>
</g>
</svg>
